<?xml version="1.0" encoding="UTF-8"?>
<svg version="1.1" xmlns="http://www.w3.org/2000/svg" width="1563" height="1563">
<path d="M0 0 C111.54 0 223.08 0 338 0 C338 0.99 338 1.98 338 3 C362.75 3 387.5 3 413 3 C411.02 5.31 409.04 7.62 407 10 C406.39414063 10.71027344 405.78828125 11.42054688 405.1640625 12.15234375 C401.59775156 16.28890238 397.85964755 20.16896241 393.96875 24 C392.06013545 25.93891002 390.27289448 27.93699551 388.5 30 C385.48237647 33.51141648 382.26640919 36.75307402 378.96875 40 C377.06013545 41.93891002 375.27289448 43.93699551 373.5 46 C370.48237647 49.51141648 367.26640919 52.75307402 363.96875 56 C362.06013545 57.93891002 360.27289448 59.93699551 358.5 62 C355.48237647 65.51141648 352.26640919 68.75307402 348.96875 72 C347.06013545 73.93891002 345.27289448 75.93699551 343.5 78 C340.48237647 81.51141648 337.26640919 84.75307402 333.96875 88 C332.06013545 89.93891002 330.27289448 91.93699551 328.5 94 C325.48358077 97.51001511 322.26904868 100.75051276 318.97265625 103.99609375 C316.42662171 106.58246151 314.07978443 109.3153528 311.71484375 112.06640625 C309.49830603 114.56569138 307.12837719 116.88281884 304.74609375 119.22265625 C302.93522357 121.06593574 301.24678646 122.97822799 299.5625 124.9375 C297.14382221 127.74576347 294.64100317 130.39970593 292 133 C289.37959391 135.58009215 286.89676588 138.21103607 284.5 141 C281.48237647 144.51141648 278.26640919 147.75307402 274.96875 151 C273.06013545 152.93891002 271.27289448 154.93699551 269.5 157 C266.48237647 160.51141648 263.26640919 163.75307402 259.96875 167 C258.06013545 168.93891002 256.27289448 170.93699551 254.5 173 C251.48237647 176.51141648 248.26640919 179.75307402 244.96875 183 C243.06013545 184.93891002 241.27289448 186.93699551 239.5 189 C236.48237647 192.51141648 233.26640919 195.75307402 229.96875 199 C228.06013545 200.93891002 226.27289448 202.93699551 224.5 205 C221.48237647 208.51141648 218.26640919 211.75307402 214.96875 215 C213.06013545 216.93891002 211.27289448 218.93699551 209.5 221 C206.48358077 224.51001511 203.26904868 227.75051276 199.97265625 230.99609375 C197.42662171 233.58246151 195.07978443 236.3153528 192.71484375 239.06640625 C190.49830603 241.56569138 188.12837719 243.88281884 185.74609375 246.22265625 C183.93522357 248.06593574 182.24678646 249.97822799 180.5625 251.9375 C178.14382221 254.74576347 175.64100317 257.39970593 173 260 C169.75622105 263.19387466 166.76362329 266.52722527 163.80078125 269.98046875 C161.22840313 272.86532664 158.4746866 275.55005797 155.69921875 278.23828125 C153.80910864 280.09309306 153.80910864 280.09309306 152 283 C222.785 283.495 222.785 283.495 295 284 C295 301.49 295 318.98 295 337 C245.17 337.33 195.34 337.66 144 338 C147.63 341.63 151.26 345.26 155 349 C158.5625 353.0625 158.5625 353.0625 160.19140625 354.97265625 C163.1740589 358.3160617 166.40356692 361.4107637 169.58984375 364.55859375 C172.26854532 367.27202727 174.74608118 370.10777023 177.22265625 373.00390625 C179.94977223 376.06666727 182.89404637 378.90223493 185.8125 381.78125 C188.40196881 384.40771122 190.78836964 387.16976458 193.1875 389.96875 C195.2109288 392.23638572 197.33653347 394.3657695 199.5 396.5 C202.9071879 399.86114482 206.07458174 403.33701203 209.1875 406.96875 C211.2109288 409.23638572 213.33653347 411.3657695 215.5 413.5 C218.9071879 416.86114482 222.07458174 420.33701203 225.1875 423.96875 C227.2109288 426.23638572 229.33653347 428.3657695 231.5 430.5 C234.9071879 433.86114482 238.07458174 437.33701203 241.1875 440.96875 C243.2109288 443.23638572 245.33653347 445.3657695 247.5 447.5 C250.9071879 450.86114482 254.07458174 454.33701203 257.1875 457.96875 C259.2109288 460.23638572 261.33653347 462.3657695 263.5 464.5 C266.9071879 467.86114482 270.07458174 471.33701203 273.1875 474.96875 C275.2109288 477.23638572 277.33653347 479.3657695 279.5 481.5 C282.26560408 484.22829407 284.91287031 486.98516834 287.4375 489.9375 C290.15619248 493.1103592 293.02751675 496.06338382 296 499 C299.58558699 502.54232199 302.94891662 506.17555661 306.22265625 510.00390625 C308.94977223 513.06666727 311.89404637 515.90223493 314.8125 518.78125 C317.40196881 521.40771122 319.78836964 524.16976458 322.1875 526.96875 C324.2109288 529.23638572 326.33653347 531.3657695 328.5 533.5 C331.9071879 536.86114482 335.07458174 540.33701203 338.1875 543.96875 C340.2109288 546.23638572 342.33653347 548.3657695 344.5 550.5 C347.9071879 553.86114482 351.07458174 557.33701203 354.1875 560.96875 C356.2109288 563.23638572 358.33653347 565.3657695 360.5 567.5 C363.9071879 570.86114482 367.07458174 574.33701203 370.1875 577.96875 C372.2109288 580.23638572 374.33653347 582.3657695 376.5 584.5 C379.9071879 587.86114482 383.07458174 591.33701203 386.1875 594.96875 C388.2109288 597.23638572 390.33653347 599.3657695 392.5 601.5 C395.90145618 604.85549055 399.06673164 608.32169981 402.16796875 611.953125 C404.98436532 615.09980262 408.03210042 618.00318044 411.08203125 620.921875 C412.91085317 622.90340914 413.86438459 624.58701413 415 627 C404.4382814 627.34952283 393.87796485 627.61503885 383.31161404 627.77718258 C378.40331933 627.85506118 373.49901509 627.96041649 368.59301758 628.1315918 C363.84637743 628.29614594 359.10353982 628.38456855 354.35426521 628.42315865 C352.55463872 628.45060574 350.75519112 628.50420998 348.95721245 628.58595085 C340.88676088 628.93782733 334.04000598 629.08530004 327.58255005 623.71463013 C323.72663395 620.07600421 320.32875537 616.11765406 317 612 C315.71260997 610.53788995 314.42261369 609.07804425 313.125 607.625 C312.62226562 607.02945313 312.11953125 606.43390625 311.6015625 605.8203125 C308.94932172 602.80581445 306.04863578 600.04120924 303.19140625 597.22265625 C300.57898932 594.5729856 298.16697379 591.78827197 295.74609375 588.96484375 C293.27518611 586.18438168 290.6183306 583.60881782 287.96875 581 C285.44574541 578.43694772 283.12437183 575.72654176 280.78125 573 C278.9257479 570.91662922 276.98776899 568.95718793 275 567 C271.74970017 563.79970478 268.75275755 560.45775424 265.78125 557 C263.9257479 554.91662922 261.98776899 552.95718793 260 551 C256.74970017 547.79970478 253.75275755 544.45775424 250.78125 541 C248.9257479 538.91662922 246.98776899 536.95718793 245 535 C241.74970017 531.79970478 238.75275755 528.45775424 235.78125 525 C233.9257479 522.91662922 231.98776899 520.95718793 230 519 C226.74970017 515.79970478 223.75275755 512.45775424 220.78125 509 C218.9257479 506.91662922 216.98776899 504.95718793 215 503 C211.74970017 499.79970478 208.75275755 496.45775424 205.78125 493 C203.9257479 490.91662922 201.98776899 488.95718793 200 487 C196.74970017 483.79970478 193.75275755 480.45775424 190.78125 477 C188.9257479 474.91662922 186.98776899 472.95718793 185 471 C181.74970017 467.79970478 178.75275755 464.45775424 175.78125 461 C173.9257479 458.91662922 171.98776899 456.95718793 170 455 C166.74970017 451.79970478 163.75275755 448.45775424 160.78125 445 C158.9257479 442.91662922 156.98776899 440.95718793 155 439 C151.74970017 435.79970478 148.75275755 432.45775424 145.78125 429 C143.9257479 426.91662922 141.98776899 424.95718793 140 423 C136.74970017 419.79970478 133.75275755 416.45775424 130.78125 413 C128.9257479 410.91662922 126.98776899 408.95718793 125 407 C121.74970017 403.79970478 118.75275755 400.45775424 115.78125 397 C113.9257479 394.91662922 111.98776899 392.95718793 110 391 C106.74970017 387.79970478 103.75275755 384.45775424 100.78125 381 C98.9257479 378.91662922 96.98776899 376.95718793 95 375 C91.74970017 371.79970478 88.75275755 368.45775424 85.78125 365 C83.29986993 362.21388904 80.63815799 359.6282832 77.98046875 357.01171875 C75.43949901 354.43065481 73.08075935 351.7180166 70.73828125 348.95703125 C68.59432779 346.54327691 66.28284323 344.28284323 64 342 C63.67 436.05 63.34 530.1 63 627 C42.21 627 21.42 627 0 627 C0 420.09 0 213.18 0 0 Z M63 52 C63 128.56 63 205.12 63 284 C71.38875773 284.85955713 71.38875773 284.85955713 75.0390625 281.875 C75.89242187 280.92625 76.74578125 279.9775 77.625 279 C78.91277344 277.6078125 78.91277344 277.6078125 80.2265625 276.1875 C81.15500077 275.12845781 82.07920208 274.06569187 83 273 C87.79879887 267.46403624 92.70629224 262.06388446 97.75 256.75 C103.2947011 250.88445742 108.79005318 244.9819657 114.23046875 239.01953125 C117.44028119 235.50971443 120.68900758 232.0364843 123.9375 228.5625 C130.32088646 221.73505187 136.66770604 214.87481982 143 208 C149.92636539 200.48021107 156.8767116 192.98413695 163.85888672 185.51611328 C167.42689036 181.69613477 170.97329528 177.85814246 174.5 174 C179.20987715 168.84749122 183.96641765 163.74032252 188.73388672 158.64111328 C194.51713995 152.45301651 200.26178773 146.22983956 206 140 C212.92636539 132.48021107 219.8767116 124.98413695 226.85888672 117.51611328 C231.32284221 112.73691018 235.7442573 107.92098907 240.15625 103.09375 C244.00997055 98.88969122 247.91281644 94.73143815 251.80859375 90.56640625 C256.28131983 85.78049147 260.71171029 80.95834995 265.12890625 76.12109375 C267.28794729 73.76528714 269.46648461 71.42859704 271.65234375 69.09765625 C272.28011719 68.42798828 272.90789062 67.75832031 273.5546875 67.06835938 C274.77832654 65.76475223 276.00350313 64.46258601 277.23046875 63.16210938 C282.86161227 58.07602722 282.86161227 58.07602722 286 52 C212.41 52 138.82 52 63 52 Z " fill="#1F3C88" transform="translate(633,326)"/>
<path d="M0 0 C1.39038986 -0.00855011 1.39038986 -0.00855011 2.80886841 -0.01727295 C4.78109592 -0.02674616 6.75333942 -0.03326609 8.72558594 -0.03710938 C11.71057995 -0.04672288 14.69485804 -0.07768471 17.6796875 -0.109375 C43.11599439 -0.25230339 43.11599439 -0.25230339 51.8828125 8.203125 C57.06000739 14.63963756 58.27597226 21.48537973 58.2578125 29.515625 C58.25620117 30.26038086 58.25458984 31.00513672 58.25292969 31.77246094 C58.07225448 39.92410097 55.88821527 47.37970413 49.8828125 53.203125 C48.23251641 53.90934383 46.56685813 54.581665 44.8828125 55.203125 C46.06757524 57.60034623 47.25510041 59.99610906 48.4453125 62.390625 C48.80302734 63.1115332 49.16074219 63.83244141 49.52929688 64.57519531 C52.40051137 70.3252201 55.45597163 75.94341382 58.6328125 81.53125 C59.8828125 84.203125 59.8828125 84.203125 59.8828125 88.203125 C52.6228125 88.203125 45.3628125 88.203125 37.8828125 88.203125 C36.3153125 85.233125 34.7478125 82.263125 33.1328125 79.203125 C32.6471582 78.28402344 32.16150391 77.36492187 31.66113281 76.41796875 C30.39539604 74.01626154 29.13694785 71.61091027 27.8828125 69.203125 C27.47998047 68.43097656 27.07714844 67.65882812 26.66210938 66.86328125 C23.8828125 61.44193673 23.8828125 61.44193673 23.8828125 59.203125 C19.5928125 59.203125 15.3028125 59.203125 10.8828125 59.203125 C10.8828125 68.773125 10.8828125 78.343125 10.8828125 88.203125 C7.6034375 88.22375 4.3240625 88.244375 0.9453125 88.265625 C-0.08972412 88.274729 -1.12476074 88.28383301 -2.19116211 88.29321289 C-3.00077393 88.29571045 -3.81038574 88.29820801 -4.64453125 88.30078125 C-5.47718506 88.30601807 -6.30983887 88.31125488 -7.16772461 88.31665039 C-9.1171875 88.203125 -9.1171875 88.203125 -10.1171875 87.203125 C-10.21763803 84.53062433 -10.25335399 81.88393919 -10.24658203 79.2109375 C-10.24833435 78.3735907 -10.25008667 77.5362439 -10.25189209 76.67352295 C-10.25631151 73.89170286 -10.2533723 71.10994579 -10.25 68.328125 C-10.25067301 66.40380847 -10.25164302 64.47949202 -10.25289917 62.55517578 C-10.25437627 58.51659335 -10.25222121 54.478033 -10.24755859 50.43945312 C-10.2418613 45.25043989 -10.24514024 40.06147837 -10.25113106 34.87246704 C-10.25473636 30.8972128 -10.25359823 26.92197091 -10.25100327 22.94671631 C-10.25033391 21.0328572 -10.25116272 19.11899698 -10.25348282 17.20513916 C-10.25600883 14.5351665 -10.25216948 11.8652788 -10.24658203 9.1953125 C-10.24860626 8.39631531 -10.25063049 7.59731812 -10.25271606 6.77410889 C-10.22084546 -1.40366071 -7.28985826 0.03438881 0 0 Z M10.8828125 18.203125 C10.8828125 25.793125 10.8828125 33.383125 10.8828125 41.203125 C13.7496875 41.265 16.6165625 41.326875 19.5703125 41.390625 C20.46451904 41.41793701 21.35872559 41.44524902 22.2800293 41.47338867 C28.06738984 41.53374805 31.30953164 40.5102044 35.6953125 36.578125 C37.56158564 32.84557873 37.53920618 29.28735235 36.8828125 25.203125 C34.52201482 21.0935883 32.3509365 19.55437218 27.8828125 18.203125 C24.93841589 17.971705 22.02132469 18.01431017 19.0703125 18.078125 C16.3684375 18.119375 13.6665625 18.160625 10.8828125 18.203125 Z " fill="#1F3C88" transform="translate(797.1171875,985.796875)"/>
<path d="M0 0 C1.43789489 3.81595183 0.5317118 6.34487898 -0.75 10.125 C-1.09546875 11.17945313 -1.4409375 12.23390625 -1.796875 13.3203125 C-3 16 -3 16 -6 18 C-8.2421875 17.5390625 -8.2421875 17.5390625 -10.875 16.625 C-17.12924188 14.76788157 -23.5203148 13.87116595 -30 15 C-32.37205346 16.90089878 -32.37205346 16.90089878 -34 19 C-33.13490295 22.62322998 -32.56290538 24.5526094 -29.6015625 26.90625 C-28.61929688 27.4321875 -27.63703125 27.958125 -26.625 28.5 C-25.54734375 29.09039063 -24.4696875 29.68078125 -23.359375 30.2890625 C-20.22532395 31.88524199 -17.05903267 33.38196914 -13.875 34.875 C-5.7039498 38.91763245 2.19919263 44.64256277 5.4453125 53.484375 C7.1413165 61.17611143 7.02646582 69.01215039 3.31640625 76.0703125 C-1.84467879 83.63581994 -9.77838808 86.88108316 -18.5 88.75 C-19.655 88.8325 -20.81 88.915 -22 89 C-22.67804687 89.0515625 -23.35609375 89.103125 -24.0546875 89.15625 C-29.69493475 89.38413878 -35.08332195 88.63378697 -40.625 87.6875 C-41.32931152 87.56987305 -42.03362305 87.45224609 -42.75927734 87.33105469 C-47.7698531 86.41663923 -52.27281409 84.89618581 -57 83 C-55.8052271 77.07627678 -54.2465785 71.61644624 -52 66 C-46.90889609 66.50911039 -42.10466015 67.43444806 -37.125 68.625 C-31.22106201 69.91094357 -25.88906217 70.68750904 -20 69 C-17.21801554 67.47479878 -17.21801554 67.47479878 -16 65 C-15.52815051 62.50244832 -15.52815051 62.50244832 -17 60 C-22.18438672 55.28893817 -28.19480164 52.23307004 -34.4375 49.1875 C-43.17133164 44.73381869 -51.31659085 40.13724536 -55.0625 30.5625 C-57.06358227 22.7487502 -56.81558223 15.18136006 -53 8 C-48.91069596 1.68016648 -42.93316629 -1.69001635 -35.67578125 -3.6171875 C-23.25767488 -5.3937925 -11.88578392 -3.5833319 0 0 Z " fill="#1F3C88" transform="translate(1017,988)"/>
<path d="M0 0 C0.97484848 0.00222061 1.94969696 0.00444122 2.9540863 0.00672913 C4.05515213 0.00680466 5.15621796 0.00688019 6.29064941 0.00695801 C8.08749428 0.01469994 8.08749428 0.01469994 9.92063904 0.02259827 C11.14000656 0.02401321 12.35937408 0.02542816 13.61569214 0.02688599 C17.52856349 0.03250485 21.4413786 0.04506055 25.35423279 0.05775452 C27.99941426 0.06276709 30.64459662 0.06733041 33.28977966 0.07142639 C39.79045005 0.08248041 46.2910874 0.09923688 52.79173279 0.12025452 C54.31664408 3.1700771 53.93534713 6.34147991 53.91673279 9.68275452 C53.92253357 10.72979553 53.92253357 10.72979553 53.92845154 11.79798889 C53.91837273 16.99361457 53.91837273 16.99361457 52.79173279 18.12025452 C50.19813957 18.20876981 47.63133587 18.23551397 45.03782654 18.21791077 C44.26237991 18.21649582 43.48693329 18.21508087 42.68798828 18.21362305 C40.20169784 18.20800797 37.71549618 18.19545298 35.22923279 18.18275452 C33.54759346 18.17774146 31.86595273 18.17317821 30.18431091 18.16908264 C26.05338949 18.15888284 21.92266097 18.13931057 17.79173279 18.12025452 C17.79173279 26.04025452 17.79173279 33.96025452 17.79173279 42.12025452 C19.94575623 42.10865295 22.09977966 42.09705139 24.31907654 42.08509827 C26.39744418 42.07730715 28.47581022 42.0712307 30.55418396 42.06532288 C32.00243351 42.06028351 33.45067796 42.05345199 34.89891052 42.04481506 C36.97647867 42.03273205 39.05397976 42.0270224 41.13157654 42.02259827 C42.38317566 42.01736145 43.63477478 42.01212463 44.92430115 42.00672913 C47.79173279 42.12025452 47.79173279 42.12025452 48.79173279 43.12025452 C48.89148311 45.63161556 48.93055462 48.10928866 48.91673279 50.62025452 C48.92253357 51.67406311 48.92253357 51.67406311 48.92845154 52.74916077 C48.91834657 57.99364074 48.91834657 57.99364074 47.79173279 59.12025452 C45.57318014 59.20808993 43.35184783 59.2272006 41.13157654 59.21791077 C40.13487694 59.21578835 40.13487694 59.21578835 39.11804199 59.21362305 C36.9883938 59.2080097 34.85884939 59.19545505 32.72923279 59.18275452 C31.28847909 59.17774123 29.84772376 59.17317803 28.40696716 59.16908264 C24.86852177 59.15803597 21.3301374 59.14076243 17.79173279 59.12025452 C17.79958801 60.38470398 17.79958801 60.38470398 17.80760193 61.67469788 C17.82461105 64.79253387 17.83716684 67.91034628 17.84666443 71.0282135 C17.85170335 72.37945838 17.85853456 73.73069778 17.86717224 75.08192444 C17.87925698 77.02045886 17.88443107 78.95903252 17.88938904 80.89759827 C17.89724426 82.64931335 17.89724426 82.64931335 17.90525818 84.43641663 C17.79173279 87.12025452 17.79173279 87.12025452 16.79173279 88.12025452 C15.30301419 88.20694884 13.81028779 88.22728945 12.31907654 88.21791077 C11.41995544 88.21468811 10.52083435 88.21146545 9.59446716 88.20814514 C8.17617615 88.19557678 8.17617615 88.19557678 6.72923279 88.18275452 C5.77983826 88.1782428 4.83044373 88.17373108 3.85227966 88.16908264 C1.49870214 88.15725562 -0.85475198 88.14077477 -3.20826721 88.12025452 C-3.23138976 76.79413822 -3.24918185 65.46802749 -3.26007938 54.14189243 C-3.26530841 48.88328788 -3.2724064 43.62469942 -3.28370667 38.36610413 C-3.29453487 33.29572325 -3.3005439 28.2253579 -3.30314445 23.15496635 C-3.30499883 21.21598504 -3.30861967 19.27700461 -3.31399727 17.33802986 C-3.32120681 14.63203692 -3.32225819 11.92610896 -3.3217926 9.22010803 C-3.32538788 8.41018906 -3.32898315 7.60027008 -3.33268738 6.76580811 C-3.32034475 0.18081437 -3.32034475 0.18081437 0 0 Z " fill="#1F3C88" transform="translate(498.20826721191406,985.8797454833984)"/>
<path d="M0 0 C1.62215675 0.00333092 1.62215675 0.00333092 3.27708435 0.00672913 C4.49827469 0.00680466 5.71946503 0.00688019 6.97766113 0.00695801 C8.32022644 0.0120654 9.66279134 0.01728141 11.00535583 0.02259827 C12.37156116 0.02446252 13.73776716 0.02588639 15.10397339 0.02688599 C18.70596654 0.03071058 22.30791959 0.04054035 25.90989685 0.05158997 C29.58298703 0.06180536 33.25608368 0.06638388 36.92918396 0.07142639 C44.14079293 0.08216268 51.35236054 0.09975899 58.56394958 0.12025452 C58.56394958 6.06025452 58.56394958 12.00025452 58.56394958 18.12025452 C51.96394958 18.12025452 45.36394958 18.12025452 38.56394958 18.12025452 C38.5691864 20.20523254 38.57442322 22.29021057 38.57981873 24.43836975 C38.59635614 31.31153831 38.60742142 38.18470773 38.61576176 45.05789089 C38.6209901 49.22688279 38.62808685 53.39585438 38.63938904 57.56483459 C38.65021967 61.58483137 38.65622679 65.60480856 38.65882683 69.6248188 C38.66068076 71.16188427 38.66430077 72.69894861 38.66967964 74.23600578 C38.67689242 76.38160938 38.67794043 78.52713107 38.67747498 80.67274475 C38.67969559 81.89630173 38.6819162 83.1198587 38.6842041 84.38049316 C38.56394958 87.12025452 38.56394958 87.12025452 37.56394958 88.12025452 C30.96394958 88.12025452 24.36394958 88.12025452 17.56394958 88.12025452 C17.56394958 65.02025452 17.56394958 41.92025452 17.56394958 18.12025452 C10.96394958 18.12025452 4.36394958 18.12025452 -2.43605042 18.12025452 C-4.25721044 16.29909449 -3.56840121 13.81353688 -3.57276917 11.39369202 C-3.56890198 10.64345764 -3.56503479 9.89322327 -3.56105042 9.12025452 C-3.5649176 8.37002014 -3.56878479 7.61978577 -3.57276917 6.84681702 C-3.56072757 0.17577369 -3.56072757 0.17577369 0 0 Z " fill="#1F3C88" transform="translate(1125.436050415039,985.8797454833984)"/>
<path d="M0 0 C6.6 0 13.2 0 20 0 C21.5657918 3.1315836 21.13837109 6.46889794 21.12939453 9.90625 C21.13114685 10.72262939 21.13289917 11.53900879 21.13470459 12.38012695 C21.13911663 15.08677274 21.13618738 17.79335352 21.1328125 20.5 C21.13348573 22.37565117 21.13445591 24.25130225 21.13571167 26.12695312 C21.13718776 30.06120635 21.13503691 33.9954369 21.13037109 37.9296875 C21.12467386 42.98069056 21.12795334 48.03164049 21.13394356 53.0826416 C21.13755154 56.95670983 21.13640949 60.83076539 21.13381577 64.70483398 C21.13314716 66.56762702 21.13397263 68.43042119 21.13629532 70.29321289 C21.13882571 72.89342305 21.13497574 75.49354633 21.12939453 78.09375 C21.13141876 78.86887939 21.13344299 79.64400879 21.13552856 80.44262695 C21.11426422 85.77147156 21.11426422 85.77147156 20 88 C13.4 88 6.8 88 0 88 C0 58.96 0 29.92 0 0 Z " fill="#1F3C88" transform="translate(657,986)"/>
<path d="M0 0 C3.63 0 7.26 0 11 0 C11.33 4.62 11.66 9.24 12 14 C12.64324219 12.989375 13.28648437 11.97875 13.94921875 10.9375 C21.04316876 0.50185974 21.04316876 0.50185974 26.625 -0.9296875 C29.85431695 -0.88011465 32.83578559 -0.63384899 36 0 C34.72180472 2.73675397 33.33095222 4.99486517 31.3984375 7.3125 C30.90859375 7.91320313 30.41875 8.51390625 29.9140625 9.1328125 C28.8848531 10.38144725 27.85095615 11.6262324 26.8125 12.8671875 C26.32523438 13.46789063 25.83796875 14.06859375 25.3359375 14.6875 C24.88782715 15.22761719 24.4397168 15.76773437 23.97802734 16.32421875 C22.66396082 18.25239554 22.66396082 18.25239554 23 22 C23.93375993 23.71630797 23.93375993 23.71630797 25.30078125 25.27734375 C25.78353516 25.87353516 26.26628906 26.46972656 26.76367188 27.08398438 C27.27478516 27.69564453 27.78589844 28.30730469 28.3125 28.9375 C31.51058591 32.8288484 34.54164192 36.57831157 37 41 C32.04802471 41.97593674 27.9150065 42.27241285 23 41 C18.23508817 36.97472425 15.10843065 31.32873825 12 26 C11.67 30.95 11.34 35.9 11 41 C7.37 41 3.74 41 0 41 C0 27.47 0 13.94 0 0 Z " fill="#000000" transform="translate(963,1120)"/>
<path d="M0 0 C3.63 0 7.26 0 11 0 C11.33 4.62 11.66 9.24 12 14 C12.64324219 12.989375 13.28648437 11.97875 13.94921875 10.9375 C21.04316876 0.50185974 21.04316876 0.50185974 26.625 -0.9296875 C29.85431695 -0.88011465 32.83578559 -0.63384899 36 0 C34.72180472 2.73675397 33.33095222 4.99486517 31.3984375 7.3125 C30.90859375 7.91320313 30.41875 8.51390625 29.9140625 9.1328125 C28.8848531 10.38144725 27.85095615 11.6262324 26.8125 12.8671875 C26.32523438 13.46789063 25.83796875 14.06859375 25.3359375 14.6875 C24.88782715 15.22761719 24.4397168 15.76773437 23.97802734 16.32421875 C22.66396082 18.25239554 22.66396082 18.25239554 23 22 C23.93375993 23.71630797 23.93375993 23.71630797 25.30078125 25.27734375 C25.78353516 25.87353516 26.26628906 26.46972656 26.76367188 27.08398438 C27.27478516 27.69564453 27.78589844 28.30730469 28.3125 28.9375 C31.51058591 32.8288484 34.54164192 36.57831157 37 41 C32.04802471 41.97593674 27.9150065 42.27241285 23 41 C18.23508817 36.97472425 15.10843065 31.32873825 12 26 C11.67 30.95 11.34 35.9 11 41 C7.37 41 3.74 41 0 41 C0 27.47 0 13.94 0 0 Z " fill="#000000" transform="translate(899,1120)"/>
<path d="M0 0 C3.63 0 7.26 0 11 0 C11.33 4.62 11.66 9.24 12 14 C12.71027344 13.07316406 13.42054688 12.14632813 14.15234375 11.19140625 C15.08069105 9.98174158 16.00907855 8.77210776 16.9375 7.5625 C17.40607422 6.95083984 17.87464844 6.33917969 18.35742188 5.70898438 C21.88671875 1.11328125 21.88671875 1.11328125 23 0 C25.18639453 -0.07258946 27.37500389 -0.08373783 29.5625 -0.0625 C31.35880859 -0.04896484 31.35880859 -0.04896484 33.19140625 -0.03515625 C34.11824219 -0.02355469 35.04507813 -0.01195312 36 0 C33.92209747 3.22147886 31.80178738 6.31080306 29.38671875 9.2890625 C28.94392578 9.83820313 28.50113281 10.38734375 28.04492188 10.953125 C27.12836846 12.0820023 26.20364659 13.20428932 25.27148438 14.3203125 C22.70917209 17.27128655 22.70917209 17.27128655 22.19433594 20.95019531 C23.12670243 23.3223617 24.29446836 24.8764584 25.94140625 26.8203125 C26.52470703 27.52027344 27.10800781 28.22023438 27.70898438 28.94140625 C28.32064453 29.66199219 28.93230469 30.38257813 29.5625 31.125 C30.77648325 32.56144092 31.98634714 34.00137677 33.19140625 35.4453125 C33.72967041 36.07969238 34.26793457 36.71407227 34.82250977 37.36767578 C36 39 36 39 36 41 C31.49132709 41.68988967 27.48577357 41.92531652 23 41 C19.2111849 37.82501528 16.63016006 34.15890298 14 30 C13.34 29.01 12.68 28.02 12 27 C11.67 31.62 11.34 36.24 11 41 C7.37 41 3.74 41 0 41 C0 27.47 0 13.94 0 0 Z " fill="#000000" transform="translate(676,1120)"/>
<path d="M0 0 C3.82265229 3.48253236 7.0784144 6.78545867 8 12 C5.89646505 12.0810206 3.79204048 12.13919907 1.6875 12.1875 C-0.07013672 12.23970703 -0.07013672 12.23970703 -1.86328125 12.29296875 C-5.33489031 11.96872133 -5.86160801 11.55831791 -8 9 C-11.37350049 7.91083846 -11.37350049 7.91083846 -15 8 C-17.80189446 9.76641172 -19.51524911 11.03049822 -21 14 C-21.53596772 18.47225528 -21.53953561 21.96409164 -19.4375 26 C-16.25255146 28.61329111 -14.08664122 28.92702426 -10 29 C-7.20428498 28.04357118 -6.32350511 27.64701022 -5 25 C-0.71 25 3.58 25 8 25 C5.95461886 31.01582687 3.2932189 34.44468344 -2 38 C-7.93802128 40.77949932 -13.97860359 40.87693849 -20.125 38.8125 C-25.33633995 36.61124639 -28.82444695 33.88088489 -31.875 29 C-34.27620559 22.42903621 -34.28241701 13.99297487 -31.5 7.5625 C-28.73833643 2.90712427 -24.1904837 -0.96372084 -19.015625 -2.64453125 C-12.44719924 -3.80291641 -5.78767172 -3.55712887 0 0 Z " fill="#000000" transform="translate(863,1122)"/>
<path d="M0 0 C3.63 0 7.26 0 11 0 C11 10.89 11 21.78 11 33 C15.29 33 19.58 33 24 33 C24 35.64 24 38.28 24 41 C16.08 41 8.16 41 0 41 C0 27.47 0 13.94 0 0 Z " fill="#000000" transform="translate(740,1120)"/>
<path d="M0 0 C3.63 0 7.26 0 11 0 C11 13.53 11 27.06 11 41 C7.37 41 3.74 41 0 41 C0 27.47 0 13.94 0 0 Z " fill="#000000" transform="translate(791,1120)"/>
</svg>
